<?xml version="1.0" encoding="UTF-8"?>
<svg width="340px" height="125px" viewBox="0 0 340 125" version="1.1" xmlns="http://www.w3.org/2000/svg" xmlns:xlink="http://www.w3.org/1999/xlink">
    <title>NPM.click Logo</title>
    <g id="Logo" stroke="none" stroke-width="1" fill="none" fill-rule="evenodd">
        <path d="M36.0380859,88 L36.0380859,51.4765625 C36.9169922,50.6302083 37.8447266,49.8652344 38.8212891,49.1816406 C39.7978516,48.4980469 40.75,47.9202474 41.6777344,47.4482422 C42.6054688,46.976237 43.492513,46.610026 44.3388672,46.3496094 C45.1852214,46.0891927 45.9339193,45.9589844 46.5849609,45.9589844 C47.2360026,45.9589844 47.8626302,46.1298828 48.4648438,46.4716797 C49.0670573,46.8134766 49.6041667,47.3180339 50.0761719,47.9853516 C50.5481771,48.6526693 50.922526,49.4827474 51.1992188,50.4755859 C51.4759115,51.4684245 51.6142578,52.5996094 51.6142578,53.8691406 L51.6142578,53.8691406 L51.6142578,88 L66.7021484,88 L66.7021484,52.2578125 C66.7021484,50.1744792 66.2952474,48.2132161 65.4814453,46.3740234 C64.6676432,44.5348307 63.5690104,42.9316406 62.1855469,41.5644531 C60.8020833,40.1972656 59.1907552,39.1149089 57.3515625,38.3173828 C55.5123698,37.5198568 53.5673828,37.1210938 51.5166016,37.1210938 C48.8798828,37.1210938 46.226888,37.5198568 43.5576172,38.3173828 C40.8883464,39.1149089 38.3818359,40.360026 36.0380859,42.0527344 L36.0380859,42.0527344 L36.0380859,36.9746094 L31.4970703,36.9746094 L20.8037109,42.5410156 L20.8037109,88 L36.0380859,88 Z M96.5361328,109.044922 L96.5361328,87.609375 C97.9033203,88.1627604 99.3111979,88.5208333 100.759766,88.6835938 C102.208333,88.8463542 103.941732,88.9277344 105.959961,88.9277344 C109.898763,88.9277344 113.44694,88.2197266 116.604492,86.8037109 C119.762044,85.3876953 122.447591,83.4182943 124.661133,80.8955078 C126.874674,78.3727214 128.583659,75.3779297 129.788086,71.9111328 C130.992513,68.4443359 131.594727,64.6601562 131.594727,60.5585938 C131.594727,57.3684896 131.090169,54.3574219 130.081055,51.5253906 C129.07194,48.6933594 127.639648,46.211263 125.78418,44.0791016 C123.928711,41.9469401 121.698893,40.2542318 119.094727,39.0009766 C116.49056,37.7477214 113.593424,37.1210938 110.40332,37.1210938 C107.408529,37.1210938 104.779948,37.5768229 102.517578,38.4882812 C100.255208,39.3997396 98.2613932,40.5878906 96.5361328,42.0527344 L96.5361328,42.0527344 L96.5361328,36.9746094 L91.9951172,36.9746094 L81.3017578,42.5410156 L81.3017578,109.044922 L96.5361328,109.044922 Z M105.959961,82.8242188 C104.527669,82.8242188 103.233724,82.5963542 102.078125,82.140625 C100.922526,81.6848958 99.9378255,81.0664062 99.1240234,80.2851562 C98.3102214,79.5039062 97.6754557,78.5843099 97.2197266,77.5263672 C96.7639974,76.4684245 96.5361328,75.3372396 96.5361328,74.1328125 L96.5361328,74.1328125 L96.5361328,52.1601562 C97.1546224,51.3138021 97.8300781,50.516276 98.5625,49.7675781 C99.2949219,49.0188802 100.076172,48.3597005 100.90625,47.7900391 C101.736328,47.2203776 102.607096,46.7727865 103.518555,46.4472656 C104.430013,46.1217448 105.357747,45.9589844 106.301758,45.9589844 C107.603841,45.9589844 108.816406,46.3740234 109.939453,47.2041016 C111.0625,48.0341797 112.030924,49.2630208 112.844727,50.890625 C113.658529,52.5182292 114.293294,54.5527344 114.749023,56.9941406 C115.204753,59.4355469 115.432617,62.2675781 115.432617,65.4902344 C115.432617,67.9967448 115.180339,70.3079427 114.675781,72.4238281 C114.171224,74.5397135 113.48763,76.3707682 112.625,77.9169922 C111.76237,79.4632161 110.753255,80.6676432 109.597656,81.5302734 C108.442057,82.3929036 107.229492,82.8242188 105.959961,82.8242188 Z M159.866211,88 L159.866211,51.3300781 C160.549805,50.6139323 161.322917,49.9303385 162.185547,49.2792969 C163.048177,48.6282552 163.943359,48.0585938 164.871094,47.5703125 C165.798828,47.0820312 166.726562,46.6914062 167.654297,46.3984375 C168.582031,46.1054688 169.452799,45.9589844 170.266602,45.9589844 C170.950195,45.9589844 171.617513,46.1787109 172.268555,46.6181641 C172.919596,47.0576172 173.497396,47.6435547 174.001953,48.3759766 C174.50651,49.1083984 174.905273,49.9710286 175.198242,50.9638672 C175.491211,51.9567057 175.637695,53.0065104 175.637695,54.1132812 L175.637695,54.1132812 L175.637695,88 L190.62793,88 L190.62793,51.3300781 C191.246419,50.6139323 191.962565,49.9303385 192.776367,49.2792969 C193.590169,48.6282552 194.460938,48.0585938 195.388672,47.5703125 C196.316406,47.0820312 197.252279,46.6914062 198.196289,46.3984375 C199.140299,46.1054688 200.051758,45.9589844 200.930664,45.9589844 C201.679362,45.9589844 202.379232,46.1787109 203.030273,46.6181641 C203.681315,47.0576172 204.250977,47.6435547 204.739258,48.3759766 C205.227539,49.1083984 205.610026,49.9710286 205.886719,50.9638672 C206.163411,51.9567057 206.301758,53.0065104 206.301758,54.1132812 L206.301758,54.1132812 L206.301758,88 L221.584961,88 L221.584961,52.9414062 C221.584961,50.7278646 221.161784,48.6608073 220.31543,46.7402344 C219.469076,44.8196615 218.329753,43.1432292 216.897461,41.7109375 C215.465169,40.2786458 213.796875,39.155599 211.892578,38.3417969 C209.988281,37.5279948 207.97819,37.1210938 205.862305,37.1210938 C204.299805,37.1210938 202.729167,37.2757161 201.150391,37.5849609 C199.571615,37.8942057 198.025391,38.3173828 196.511719,38.8544922 C194.998047,39.3916016 193.557617,40.0507812 192.19043,40.8320312 C190.823242,41.6132812 189.569987,42.4596354 188.430664,43.3710938 C187.681966,42.3945312 186.786784,41.523763 185.745117,40.7587891 C184.703451,39.9938151 183.572266,39.3427734 182.351562,38.8056641 C181.130859,38.2685547 179.861328,37.8535156 178.542969,37.5605469 C177.224609,37.2675781 175.914388,37.1210938 174.612305,37.1210938 C172.268555,37.1210938 169.81901,37.593099 167.263672,38.5371094 C164.708333,39.4811198 162.242513,40.7669271 159.866211,42.3945312 L159.866211,42.3945312 L159.866211,36.9746094 L155.325195,36.9746094 L144.729492,42.5410156 L144.729492,88 L159.866211,88 Z" id="npm" fill="#FFFFFF" fill-rule="nonzero"></path>
        <g id="click" transform="translate(280.500000, 57.601942) rotate(-20.000000) translate(-280.500000, -57.601942) translate(243.000000, 11.000000)" fill="#FFFFFF" fill-rule="nonzero">
            <path d="M54.0653519,93.2029733 C49.9824029,93.2029733 46.0447209,90.9251214 44.1480583,87.0504248 L38.6584951,76.771966 L35.5443568,82.7162621 C35.4646238,82.8688107 35.3737864,83.015534 35.273301,83.1551578 C33.229551,85.9913228 29.8669296,86.9992718 27.3773665,86.9992718 C27.3573422,86.9992718 27.337318,86.9992718 27.3171117,86.9990898 C24.5348301,86.9807039 21.7643811,85.7868932 19.7166262,83.723301 C17.5898665,81.5803398 16.4188107,78.7356189 16.4188107,75.712682 L16.4188107,28.5729976 C16.4188107,24.2734223 18.8413835,20.4775485 22.7408374,18.6666262 C26.6033374,16.8728155 31.0190534,17.4429612 34.2946602,20.1500607 L58.2777306,38.0100728 C59.8904126,39.210983 60.2240898,41.4919296 59.0233617,43.1046117 C57.8222694,44.7172937 55.5415049,45.0509709 53.9288228,43.8500607 L29.8649272,25.9297937 C29.8054005,25.8853762 29.7471481,25.8393204 29.6903519,25.7912621 C28.0434466,24.4004854 26.3026092,25.0412621 25.8078277,25.2708131 C25.3134102,25.5003641 23.7005461,26.4169296 23.7005461,28.5729976 L23.7005461,75.7128641 C23.7005461,78.0587985 25.6317961,79.706432 27.3653519,79.7177184 C27.3708131,79.7177184 27.3766383,79.7177184 27.3820995,79.7177184 C28.0905947,79.7177184 28.8695388,79.4242718 29.2576456,79.026335 L35.4029126,67.2961165 C36.0287621,66.1012136 37.2644417,65.3503034 38.6133495,65.3448422 C38.6182646,65.3448422 38.6231796,65.3448422 38.6279126,65.3448422 C39.9713592,65.3448422 41.2061286,66.0846481 41.8394417,67.270449 L50.6047937,83.6821602 C50.629551,83.7283981 50.653216,83.775182 50.6757888,83.8225121 C51.5495752,85.6432646 53.7518811,86.4354976 55.5846481,85.5870146 C56.4972087,85.1650485 57.1856796,84.4114078 57.5237257,83.4648058 C57.8515777,82.5471481 57.8095267,81.5610437 57.4070388,80.6777913 L48.5606796,64.935801 C47.9271845,63.8084345 47.939199,62.4296723 48.5923544,61.3135922 C49.2453277,60.1975121 50.4415049,59.5115898 51.7347087,59.5115898 L64.2167476,59.5115898 C66.3291262,59.4036408 67.1725121,57.7401699 67.3818568,57.2290049 C67.5966626,56.704915 68.1800971,54.8701456 66.6726335,53.2712985 C65.2933252,51.8082524 65.3610437,49.5041869 66.8239078,48.1246966 C68.2869539,46.7452063 70.5912015,46.8132888 71.9705097,48.2761529 C74.957767,51.4445388 75.7816748,55.9325243 74.1202063,59.9888956 C72.4680218,64.0228762 68.7553398,66.6291262 64.4311893,66.7905947 C64.3860437,66.792415 64.340716,66.7931432 64.2953883,66.7931432 L57.9569782,66.7931432 L63.8179005,77.2226942 C63.8537621,77.2867718 63.8879854,77.3517597 63.9200243,77.4178398 C65.2181432,80.0949029 65.3817961,83.1123786 64.3809466,85.9141383 C63.3802791,88.7160801 61.3421723,90.946966 58.6418083,92.1959345 C57.1631068,92.8791262 55.6037621,93.2029733 54.0653519,93.2029733 Z M20.5354369,14.2976942 C22.298665,13.3308859 22.9439927,11.1178398 21.9771845,9.35479369 L18.8825243,3.71158981 C17.915716,1.94854369 15.703034,1.30321602 13.9398058,2.27002427 C12.1765777,3.23683252 11.53125,5.44987864 12.4980583,7.21292476 L15.5927184,12.8561286 C16.2549757,14.0637743 17.5015777,14.746966 18.7882282,14.746966 C19.3798544,14.746966 19.9802184,14.6024272 20.5354369,14.2976942 Z M12.8364684,22.5770024 C13.6423544,20.7347694 12.8022451,18.5879854 10.9601942,17.7820995 L5.13495146,15.2335558 C3.29271845,14.4274879 1.1461165,15.2677791 0.340048544,17.1098301 C-0.465837379,18.9520631 0.374271845,21.0988471 2.21632282,21.904733 L8.04156553,24.4532767 C8.51650485,24.661165 9.01165049,24.759466 9.49896845,24.759466 C10.9015777,24.759284 12.2382888,23.9441141 12.8364684,22.5770024 Z M35.5277913,10.8005461 L37.5302184,4.79326456 C38.1660801,2.88567961 37.1351942,0.823725728 35.2276092,0.188046117 C33.3207524,-0.448179612 31.2580704,0.583070388 30.6223908,2.49065534 L28.6199636,8.49793689 C27.9841019,10.4055218 29.0149879,12.4674757 30.9225728,13.1031553 C31.3044903,13.2305825 31.6925971,13.2910194 32.0743325,13.2910194 C33.5985437,13.2910194 35.0193568,12.3260316 35.5277913,10.8005461 Z M45.1631068,20.0384709 L50.0781553,16.3976942 C51.693932,15.2007888 52.0334345,12.9207524 50.8367112,11.3049757 C49.6398058,9.68919903 47.3595874,9.3496966 45.7439927,10.5464199 L40.8289442,14.1871966 C39.2131675,15.3841019 38.873665,17.6641383 40.0703883,19.279915 C40.7847087,20.2441748 41.8845874,20.7538835 42.9988471,20.7538835 C43.7519417,20.7538835 44.5115898,20.5210558 45.1631068,20.0384709 Z M5.39199029,40.5174757 L10.8531553,38.3330097 C12.7201456,37.5862864 13.6281553,35.4673544 12.881432,33.6005461 C12.1345267,31.7333738 10.0154126,30.8253641 8.14896845,31.5722694 L2.6878034,33.7567354 C0.820813107,34.5034587 -0.0871966019,36.6223908 0.659526699,38.489199 C1.22894417,39.9127427 2.59605583,40.7788835 4.04089806,40.7788835 C4.4910801,40.7788835 4.94854369,40.6947816 5.39199029,40.5174757 Z" id="Shape"></path>
        </g>
    </g>
</svg>
